<svg xmlns="http://www.w3.org/2000/svg" viewBox="0 0 128 128">
  <defs>
    <linearGradient id="g" x1="0" x2="1" y1="0" y2="1">
      <stop offset="0" stop-color="#1d4ed8"/>
      <stop offset="1" stop-color="#3b82f6"/>
    </linearGradient>
  </defs>
  <rect width="128" height="128" rx="24" fill="url(#g)"/>
  <g fill="#fff">
    <path d="M38 34h52a6 6 0 0 1 6 6v48a6 6 0 0 1-6 6H38a6 6 0 0 1-6-6V40a6 6 0 0 1 6-6zm6 16h40v8H44v-8zm0 18h40v8H44v-8zm0 18h24v8H44v-8z" opacity=".9"/>
    <circle cx="86" cy="44" r="8"/>
  </g>
</svg>
